<?xml version="1.0" encoding="UTF-8" standalone="no" ?>
<!DOCTYPE svg PUBLIC "-//W3C//DTD SVG 1.1//EN" "http://www.w3.org/Graphics/SVG/1.1/DTD/svg11.dtd">
<svg xmlns="http://www.w3.org/2000/svg" xmlns:xlink="http://www.w3.org/1999/xlink" version="1.1" width="1080" height="540" viewBox="0 0 1080 540" xml:space="preserve">
<desc>Created with Fabric.js 4.2.0</desc>
<defs>
</defs>
<rect x="0" y="0" width="100%" height="100%" fill="transparent"></rect>
<g transform="matrix(1 0 0 1 540 270)" id="efd6bb8e-4995-45a2-8648-19cd85dee9ef"  >
<rect style="stroke: none; stroke-width: 1; stroke-dasharray: none; stroke-linecap: butt; stroke-dashoffset: 0; stroke-linejoin: miter; stroke-miterlimit: 4; fill: rgb(255,255,255); fill-opacity: 0; fill-rule: nonzero; opacity: 1;" vector-effect="non-scaling-stroke"  x="-540" y="-270" rx="0" ry="0" width="1080" height="540" />
</g>
<g transform="matrix(0 0 0 0 0 0)" id="3161325f-f1f7-4484-bf20-aaee251f94fb"  >
</g>
<g transform="matrix(3.97 0 0 3.97 540.24 270.24)"  >
<g style="" vector-effect="non-scaling-stroke"   >
		<g transform="matrix(1 0 0 1 0 0)"  >
<rect style="stroke: none; stroke-width: 1; stroke-dasharray: none; stroke-linecap: butt; stroke-dashoffset: 0; stroke-linejoin: miter; stroke-miterlimit: 4; fill: rgb(255,255,255); fill-opacity: 0; fill-rule: nonzero; opacity: 1;" vector-effect="non-scaling-stroke"  x="-150" y="-150" rx="0" ry="0" width="300" height="300" />
</g>
		<g transform="matrix(2.27 0 0 2.27 27.14 -9.98)"  >
<path style="stroke: none; stroke-width: 1; stroke-dasharray: none; stroke-linecap: butt; stroke-dashoffset: 0; stroke-linejoin: miter; stroke-miterlimit: 4; fill: rgb(46,48,52); fill-rule: nonzero; opacity: 1;" vector-effect="non-scaling-stroke"  transform=" translate(-38.14, -9.8)" d="M 7.15 5.1 L 2.56 5.1 L 2.56 8.74 L 6.4 8.74 L 6.4 9.63 L 2.56 9.63 L 2.56 13.1 L 7.15 13.1 L 7.15 14 L 1.55 14 L 1.55 4.2 L 7.15 4.2 L 7.15 5.1 Z M 12.18 6.83 L 12.18 6.83 Q 10.86 6.83 10.21 7.73 L 10.21 7.73 L 10.21 7.73 Q 9.55 8.62 9.55 10.51 L 9.55 10.51 L 9.55 10.51 Q 9.55 12.38 10.27 13.27 L 10.27 13.27 L 10.27 13.27 Q 10.99 14.15 12.32 14.15 L 12.32 14.15 L 12.32 14.15 Q 13.76 14.15 14.52 13.08 L 14.52 13.08 L 14.52 16.8 L 15.53 16.8 L 15.53 7 L 14.7 7 L 14.52 7.99 L 14.52 8.13 L 14.52 8.13 Q 14.13 7.53 13.52 7.18 L 13.52 7.18 L 13.52 7.18 Q 12.92 6.83 12.18 6.83 L 12.18 6.83 Z M 12.5 13.24 L 12.5 13.24 Q 11.49 13.24 11.03 12.59 L 11.03 12.59 L 11.03 12.59 Q 10.56 11.93 10.56 10.51 L 10.56 10.51 L 10.56 10.51 Q 10.56 9.06 10.97 8.4 L 10.97 8.4 L 10.97 8.4 Q 11.38 7.74 12.36 7.74 L 12.36 7.74 L 12.36 7.74 Q 12.94 7.74 13.4 8.03 L 13.4 8.03 L 13.4 8.03 Q 13.86 8.32 14.15 8.72 L 14.15 8.72 L 14.15 8.72 Q 14.43 9.13 14.52 9.49 L 14.52 9.49 L 14.52 11.68 L 14.52 11.68 Q 14.43 12.03 14.18 12.38 L 14.18 12.38 L 14.18 12.38 Q 13.93 12.74 13.5 12.99 L 13.5 12.99 L 13.5 12.99 Q 13.08 13.24 12.5 13.24 L 12.5 13.24 Z M 23.9 14 L 22.97 14 L 22.9 13.03 L 22.9 13.03 Q 22.51 13.55 21.9 13.85 L 21.9 13.85 L 21.9 13.85 Q 21.29 14.14 20.52 14.14 L 20.52 14.14 L 20.52 14.14 Q 19.36 14.14 18.77 13.43 L 18.77 13.43 L 18.77 13.43 Q 18.17 12.73 18.17 11.09 L 18.17 11.09 L 18.17 6.99 L 19.18 6.99 L 19.18 10.71 L 19.18 10.71 Q 19.18 11.63 19.29 12.16 L 19.29 12.16 L 19.29 12.16 Q 19.39 12.68 19.73 12.96 L 19.73 12.96 L 19.73 12.96 Q 20.06 13.23 20.73 13.23 L 20.73 13.23 L 20.73 13.23 Q 21.59 13.23 22.13 12.75 L 22.13 12.75 L 22.13 12.75 Q 22.68 12.28 22.88 11.77 L 22.88 11.77 L 22.88 6.99 L 23.88 6.99 L 23.88 12.59 L 23.9 14 Z M 33 13.51 L 32.31 14.17 L 31.44 13.3 L 31.44 13.3 Q 31.07 13.65 30.47 13.9 L 30.47 13.9 L 30.47 13.9 Q 29.88 14.15 29.06 14.15 L 29.06 14.15 L 29.06 14.15 Q 27.71 14.15 27.03 13.59 L 27.03 13.59 L 27.03 13.59 Q 26.35 13.02 26.35 11.86 L 26.35 11.86 L 26.35 11.86 Q 26.35 10.68 27.07 10.13 L 27.07 10.13 L 27.07 10.13 Q 27.79 9.58 29.37 9.58 L 29.37 9.58 L 31.15 9.58 L 31.15 8.97 L 31.15 8.97 Q 31.15 8.32 30.7 8.03 L 30.7 8.03 L 30.7 8.03 Q 30.25 7.74 29.39 7.74 L 29.39 7.74 L 29.39 7.74 Q 28.04 7.74 27.5 8.36 L 27.5 8.36 L 26.81 7.69 L 26.81 7.69 Q 27.19 7.31 27.87 7.07 L 27.87 7.07 L 27.87 7.07 Q 28.56 6.83 29.48 6.83 L 29.48 6.83 L 29.48 6.83 Q 30.7 6.83 31.42 7.32 L 31.42 7.32 L 31.42 7.32 Q 32.14 7.81 32.14 8.75 L 32.14 8.75 L 32.14 12.66 L 33 13.51 Z M 27.36 11.86 L 27.36 11.86 Q 27.36 12.63 27.83 12.94 L 27.83 12.94 L 27.83 12.94 Q 28.29 13.26 29.29 13.26 L 29.29 13.26 L 29.29 13.26 Q 29.83 13.26 30.35 13.02 L 30.35 13.02 L 30.35 13.02 Q 30.87 12.78 31.15 12.45 L 31.15 12.45 L 31.15 10.47 L 29.82 10.47 L 29.82 10.47 Q 28.83 10.47 28.31 10.58 L 28.31 10.58 L 28.31 10.58 Q 27.79 10.68 27.57 10.98 L 27.57 10.98 L 27.57 10.98 Q 27.36 11.27 27.36 11.86 L 27.36 11.86 Z M 39.21 13.3 L 39.21 13.3 Q 39.54 13.3 39.98 13.24 L 39.98 13.24 L 39.98 13.24 Q 40.42 13.17 40.61 13.13 L 40.61 13.13 L 40.61 14 L 40.61 14 Q 40.59 14 40.17 14.08 L 40.17 14.08 L 40.17 14.08 Q 39.76 14.15 39 14.15 L 39 14.15 L 39 14.15 Q 38.21 14.15 37.65 13.76 L 37.65 13.76 L 37.65 13.76 Q 37.1 13.36 37.1 12.32 L 37.1 12.32 L 37.1 3.7 L 34.89 3.7 L 34.89 2.8 L 38.11 2.8 L 38.11 12.11 L 38.11 12.11 Q 38.11 12.85 38.42 13.08 L 38.42 13.08 L 38.42 13.08 Q 38.72 13.3 39.21 13.3 L 39.21 13.3 Z M 48.99 4.2 L 49.99 4.2 L 48.82 14 L 47.64 14 L 46.28 6.94 L 46.24 6.38 L 46.2 6.94 L 44.84 14 L 43.67 14 L 42.49 4.2 L 43.5 4.2 L 44.31 12.08 L 44.32 12.45 L 44.37 12 L 45.7 4.91 L 46.79 4.91 L 48.12 12 L 48.16 12.45 L 48.17 12.08 L 48.99 4.2 Z M 54.6 5.15 L 54.6 5.15 Q 54.21 5.15 53.94 4.89 L 53.94 4.89 L 53.94 4.89 Q 53.66 4.62 53.66 4.23 L 53.66 4.23 L 53.66 4.23 Q 53.66 3.84 53.94 3.57 L 53.94 3.57 L 53.94 3.57 Q 54.21 3.3 54.6 3.3 L 54.6 3.3 L 54.6 3.3 Q 54.99 3.3 55.26 3.57 L 55.26 3.57 L 55.26 3.57 Q 55.52 3.84 55.52 4.23 L 55.52 4.23 L 55.52 4.23 Q 55.52 4.62 55.26 4.89 L 55.26 4.89 L 55.26 4.89 Q 54.99 5.15 54.6 5.15 L 54.6 5.15 Z M 55.13 13.1 L 57.22 13.1 L 57.22 14 L 54.12 14 L 54.12 7.9 L 51.65 7.9 L 51.65 7 L 55.13 7 L 55.13 13.1 Z M 63.03 14.15 L 63.03 14.15 Q 62.13 14.15 61.3 13.87 L 61.3 13.87 L 61.3 13.87 Q 60.47 13.59 60.05 13.05 L 60.05 13.05 L 60.93 12.46 L 60.93 12.46 Q 61.17 12.81 61.79 13.03 L 61.79 13.03 L 61.79 13.03 Q 62.41 13.24 63.06 13.24 L 63.06 13.24 L 63.06 13.24 Q 63.83 13.24 64.39 12.96 L 64.39 12.96 L 64.39 12.96 Q 64.96 12.67 64.96 12.07 L 64.96 12.07 L 64.96 12.07 Q 64.96 11.58 64.46 11.32 L 64.46 11.32 L 64.46 11.32 Q 63.95 11.06 63.52 10.96 L 63.52 10.96 L 63.52 10.96 Q 63.1 10.85 63.01 10.82 L 63.01 10.82 L 63.01 10.82 Q 62.34 10.64 61.82 10.45 L 61.82 10.45 L 61.82 10.45 Q 61.31 10.26 60.84 9.82 L 60.84 9.82 L 60.84 9.82 Q 60.37 9.38 60.37 8.69 L 60.37 8.69 L 60.37 8.69 Q 60.37 8.06 60.79 7.64 L 60.79 7.64 L 60.79 7.64 Q 61.22 7.22 61.87 7.03 L 61.87 7.03 L 61.87 7.03 Q 62.51 6.83 63.15 6.83 L 63.15 6.83 L 63.15 6.83 Q 63.95 6.83 64.68 7.13 L 64.68 7.13 L 64.68 7.13 Q 65.41 7.42 65.76 7.97 L 65.76 7.97 L 64.9 8.53 L 64.9 8.53 Q 64.67 8.13 64.16 7.94 L 64.16 7.94 L 64.16 7.94 Q 63.66 7.74 63.15 7.74 L 63.15 7.74 L 63.15 7.74 Q 62.55 7.74 62 7.99 L 62 7.99 L 62 7.99 Q 61.45 8.23 61.45 8.75 L 61.45 8.75 L 61.45 8.75 Q 61.45 9.18 61.88 9.41 L 61.88 9.41 L 61.88 9.41 Q 62.31 9.65 62.69 9.75 L 62.69 9.75 L 62.69 9.75 Q 63.07 9.86 63.17 9.88 L 63.17 9.88 L 63.17 9.88 Q 63.27 9.91 64.04 10.1 L 64.04 10.1 L 64.04 10.1 Q 64.82 10.29 65.43 10.8 L 65.43 10.8 L 65.43 10.8 Q 66.04 11.31 66.04 12.01 L 66.04 12.01 L 66.04 12.01 Q 66.04 12.73 65.6 13.21 L 65.6 13.21 L 65.6 13.21 Q 65.16 13.69 64.47 13.92 L 64.47 13.92 L 64.47 13.92 Q 63.78 14.15 63.03 14.15 L 63.03 14.15 Z M 71.82 6.83 L 71.82 6.83 Q 73.22 6.83 73.98 7.79 L 73.98 7.79 L 73.98 7.79 Q 74.73 8.75 74.73 10.33 L 74.73 10.33 L 74.73 10.33 Q 74.73 10.6 74.72 10.74 L 74.72 10.74 L 69.69 10.74 L 69.69 10.74 Q 69.75 12.03 70.29 12.63 L 70.29 12.63 L 70.29 12.63 Q 70.83 13.24 71.75 13.24 L 71.75 13.24 L 71.75 13.24 Q 72.39 13.24 72.88 12.95 L 72.88 12.95 L 72.88 12.95 Q 73.36 12.66 73.65 12.18 L 73.65 12.18 L 74.56 12.67 L 74.56 12.67 Q 74.14 13.34 73.41 13.75 L 73.41 13.75 L 73.41 13.75 Q 72.67 14.15 71.78 14.15 L 71.78 14.15 L 71.78 14.15 Q 70.92 14.15 70.2 13.78 L 70.2 13.78 L 70.2 13.78 Q 69.48 13.4 69.05 12.57 L 69.05 12.57 L 69.05 12.57 Q 68.61 11.75 68.61 10.49 L 68.61 10.49 L 68.61 10.49 Q 68.61 9.21 69.06 8.39 L 69.06 8.39 L 69.06 8.39 Q 69.51 7.57 70.24 7.2 L 70.24 7.2 L 70.24 7.2 Q 70.97 6.83 71.82 6.83 L 71.82 6.83 Z M 69.73 9.84 L 73.61 9.84 L 73.61 9.84 Q 73.56 8.88 73.11 8.31 L 73.11 8.31 L 73.11 8.31 Q 72.66 7.74 71.78 7.74 L 71.78 7.74 L 71.78 7.74 Q 70.97 7.74 70.41 8.24 L 70.41 8.24 L 70.41 8.24 Q 69.86 8.74 69.73 9.84 L 69.73 9.84 Z" stroke-linecap="round" />
</g>
		<g transform="matrix(1.8 0 0 1.8 -89.43 0.04)"  >
<path style="stroke: none; stroke-width: 1; stroke-dasharray: none; stroke-linecap: butt; stroke-dashoffset: 0; stroke-linejoin: miter; stroke-miterlimit: 4; fill: rgb(72,142,255); fill-rule: nonzero; opacity: 1;" vector-effect="non-scaling-stroke"  transform=" translate(-16, -16)" d="M 27.377 11.377 L 16 0 L 4.623 11.377 L 16 22.753 L 27.377000000000002 11.377 z M 16 6.026 L 21.35 11.376 L 16 16.727 L 10.65 11.377 L 16 6.026 z M 27.426 14.969 L 21.762 20.633 L 21.762 32 L 27.426000000000002 32 z M 10.238 20.633 L 4.574 14.969 L 4.574 32 L 10.238 32 z" stroke-linecap="round" />
</g>
		<g transform="matrix(0.33 0 0 0.33 27.64 17.44)"  >
<path style="stroke: none; stroke-width: 1; stroke-dasharray: none; stroke-linecap: butt; stroke-dashoffset: 0; stroke-linejoin: miter; stroke-miterlimit: 4; fill: rgb(46,48,52); fill-rule: nonzero; opacity: 1;" vector-effect="non-scaling-stroke"  transform=" translate(-254.35, -6.85)" d="M 6.97 6.75 C 7.63 6.45 8.22 5.85 8.22 4.66 C 8.22 3.54 7.48 2.21 5.29 2.21 L 1.13 2.21 L 1.13 11.48 L 5.53 11.48 C 7.64 11.48 8.69 10.43 8.69 9.04 C 8.69 7.66 7.76 7 6.97 6.75 Z M 2.18 3.21 L 5.4 3.21 C 6.68 3.21 7.17 3.98 7.17 4.75 C 7.17 5.88 6.26 6.36 5.29 6.36 L 2.18 6.36 Z M 5.64 10.49 L 2.18 10.49 L 2.18 7.31 L 5.53 7.31 C 7 7.31 7.64 8.09 7.64 8.96 C 7.64 9.93 6.92 10.49 5.64 10.49 Z M 24.12 2.21 L 24.12 7.52 C 24.12 9.67 22.69 10.57 21.22 10.57 C 19.75 10.57 18.34 9.67 18.34 7.52 L 18.34 2.21 L 17.29 2.21 L 17.29 7.49 C 17.29 9.95 18.91 11.59 21.22 11.59 C 23.55 11.59 25.17 9.94 25.17 7.49 L 25.17 2.21 Z M 35.38 2.21 L 34.33 2.21 L 34.33 11.48 L 35.38 11.48 Z M 44.65 2.21 L 44.65 11.48 L 50.75 11.48 L 50.75 10.47 L 45.7 10.47 L 45.7 2.21 Z M 63.01 2.21 L 59.11 2.21 L 59.11 11.48 L 63.01 11.48 C 65.23 11.48 67.27 9.74 67.27 6.85 C 67.27 3.95 65.23 2.21 63.01 2.21 Z M 62.97 10.49 L 60.16 10.49 L 60.16 3.21 L 62.97 3.21 C 64.95 3.21 66.22 4.86 66.22 6.85 C 66.22 8.83 64.95 10.49 62.97 10.49 Z M 77.01 2.21 L 75.96 2.21 L 75.96 11.48 L 77.01 11.48 Z M 93.23 2.21 L 93.23 10.01 L 87.5 2.21 L 86.28 2.21 L 86.28 11.48 L 87.33 11.48 L 87.33 3.65 L 93.06 11.48 L 94.28 11.48 L 94.28 2.21 Z M 107.52 2.1 C 104.73 2.1 102.96 4.21 102.96 6.85 C 102.96 9.48 104.66 11.59 107.49 11.59 C 109.17 11.59 110.26 10.74 110.85 9.84 L 110.85 11.48 L 111.82 11.48 L 111.82 6.55 L 107.46 6.55 L 107.46 7.5 L 110.85 7.5 C 110.85 9.44 109.26 10.57 107.58 10.57 C 105.32 10.57 104.01 8.93 104.01 6.85 C 104.01 4.76 105.35 3.12 107.6 3.12 C 109.02 3.12 110.03 3.74 110.59 4.73 L 111.73 4.73 C 111.05 3.18 109.51 2.1 107.52 2.1 Z M 134.81 2.21 L 133.49 2.21 L 129.56 11.48 L 130.72 11.48 L 131.85 8.79 L 136.44 8.79 L 137.58 11.48 L 138.74 11.48 Z M 132.26 7.83 L 134.15 3.3 L 136.04 7.83 Z M 162.74 6.75 C 163.39 6.45 163.98 5.85 163.98 4.66 C 163.98 3.54 163.24 2.21 161.06 2.21 L 156.9 2.21 L 156.9 11.48 L 161.29 11.48 C 163.41 11.48 164.46 10.43 164.46 9.04 C 164.46 7.66 163.52 7 162.74 6.75 Z M 157.95 3.21 L 161.17 3.21 C 162.44 3.21 162.93 3.98 162.93 4.75 C 162.93 5.88 162.02 6.36 161.06 6.36 L 157.95 6.36 Z M 161.41 10.49 L 157.95 10.49 L 157.95 7.31 L 161.29 7.31 C 162.76 7.31 163.41 8.09 163.41 8.96 C 163.41 9.93 162.68 10.49 161.41 10.49 Z M 179.98 3.22 L 179.98 2.21 L 173.17 2.21 L 173.17 11.48 L 179.98 11.48 L 179.98 10.47 L 174.22 10.47 L 174.22 7.35 L 179.37 7.35 L 179.37 6.33 L 174.22 6.33 L 174.22 3.22 Z M 195.26 2.21 L 187.74 2.21 L 187.74 3.22 L 190.97 3.22 L 190.97 11.48 L 192.02 11.48 L 192.02 3.22 L 195.26 3.22 Z M 210.17 2.21 L 202.65 2.21 L 202.65 3.22 L 205.88 3.22 L 205.88 11.48 L 206.93 11.48 L 206.93 3.22 L 210.17 3.22 Z M 225.32 3.22 L 225.32 2.21 L 218.5 2.21 L 218.5 11.48 L 225.32 11.48 L 225.32 10.47 L 219.55 10.47 L 219.55 7.35 L 224.7 7.35 L 224.7 6.33 L 219.55 6.33 L 219.55 3.22 Z M 235.06 7.92 L 238.28 7.92 L 240.52 11.48 L 241.77 11.48 L 239.33 7.74 C 240.37 7.5 241.57 6.9 241.57 5.11 C 241.57 3.35 240.35 2.21 238.45 2.21 L 234.01 2.21 L 234.01 11.48 L 235.06 11.48 Z M 235.06 3.21 L 238.32 3.21 C 239.64 3.21 240.52 3.93 240.52 5.11 C 240.52 6.55 239.26 6.93 238.27 6.93 L 235.06 6.93 Z M 267.18 3.22 L 267.18 2.21 L 260.36 2.21 L 260.36 11.48 L 267.18 11.48 L 267.18 10.47 L 261.41 10.47 L 261.41 7.35 L 266.56 7.35 L 266.56 6.33 L 261.41 6.33 L 261.41 3.22 Z M 279.78 2.21 L 275.87 2.21 L 275.87 11.48 L 279.78 11.48 C 281.99 11.48 284.03 9.74 284.03 6.85 C 284.03 3.95 281.99 2.21 279.78 2.21 Z M 279.73 10.49 L 276.92 10.49 L 276.92 3.21 L 279.73 3.21 C 281.71 3.21 282.98 4.86 282.98 6.85 C 282.98 8.83 281.71 10.49 279.73 10.49 Z M 299.45 2.21 L 299.45 7.52 C 299.45 9.67 298.02 10.57 296.55 10.57 C 295.08 10.57 293.66 9.67 293.66 7.52 L 293.66 2.21 L 292.61 2.21 L 292.61 7.49 C 292.61 9.95 294.24 11.59 296.55 11.59 C 298.87 11.59 300.5 9.94 300.5 7.49 L 300.5 2.21 Z M 313.63 10.57 C 311.37 10.57 310.11 8.93 310.11 6.85 C 310.11 4.76 311.37 3.12 313.63 3.12 C 315.15 3.12 316.16 3.85 316.64 4.98 L 317.74 4.98 C 317.16 3.29 315.64 2.1 313.54 2.1 C 310.76 2.1 309.06 4.21 309.06 6.85 C 309.06 9.48 310.76 11.59 313.54 11.59 C 315.64 11.59 317.16 10.4 317.74 8.71 L 316.64 8.71 C 316.16 9.84 315.15 10.57 313.63 10.57 Z M 330.47 2.21 L 329.15 2.21 L 325.22 11.48 L 326.38 11.48 L 327.52 8.79 L 332.11 8.79 L 333.24 11.48 L 334.4 11.48 Z M 327.92 7.83 L 329.81 3.3 L 331.7 7.83 Z M 348.33 2.21 L 340.82 2.21 L 340.82 3.22 L 344.05 3.22 L 344.05 11.48 L 345.1 11.48 L 345.1 3.22 L 348.33 3.22 Z M 357.71 2.21 L 356.66 2.21 L 356.66 11.48 L 357.71 11.48 Z M 371.1 2.1 C 368.28 2.1 366.39 4.21 366.39 6.85 C 366.39 9.48 368.28 11.59 371.1 11.59 C 373.91 11.59 375.8 9.48 375.8 6.85 C 375.8 4.21 373.91 2.1 371.1 2.1 Z M 371.1 10.57 C 368.84 10.57 367.44 8.93 367.44 6.85 C 367.44 4.76 368.84 3.12 371.1 3.12 C 373.35 3.12 374.75 4.76 374.75 6.85 C 374.75 8.93 373.35 10.57 371.1 10.57 Z M 391.43 2.21 L 391.43 10.01 L 385.7 2.21 L 384.48 2.21 L 384.48 11.48 L 385.53 11.48 L 385.53 3.65 L 391.26 11.48 L 392.48 11.48 L 392.48 2.21 Z M 418.42 3.22 L 418.42 2.21 L 411.73 2.21 L 411.73 11.48 L 412.78 11.48 L 412.78 7.46 L 417.8 7.46 L 417.8 6.44 L 412.78 6.44 L 412.78 3.22 Z M 431 2.1 C 428.19 2.1 426.3 4.21 426.3 6.85 C 426.3 9.48 428.19 11.59 431 11.59 C 433.82 11.59 435.71 9.48 435.71 6.85 C 435.71 4.21 433.82 2.1 431 2.1 Z M 431 10.57 C 428.75 10.57 427.35 8.93 427.35 6.85 C 427.35 4.76 428.75 3.12 431 3.12 C 433.26 3.12 434.66 4.76 434.66 6.85 C 434.66 8.93 433.26 10.57 431 10.57 Z M 445.44 7.92 L 448.66 7.92 L 450.9 11.48 L 452.14 11.48 L 449.71 7.74 C 450.74 7.5 451.95 6.9 451.95 5.11 C 451.95 3.35 450.73 2.21 448.83 2.21 L 444.39 2.21 L 444.39 11.48 L 445.44 11.48 Z M 445.44 3.21 L 448.7 3.21 C 450.02 3.21 450.9 3.93 450.9 5.11 C 450.9 6.55 449.64 6.93 448.64 6.93 L 445.44 6.93 Z M 474.89 2.21 L 473.58 2.21 L 469.64 11.48 L 470.81 11.48 L 471.94 8.79 L 476.53 8.79 L 477.67 11.48 L 478.83 11.48 Z M 472.35 7.83 L 474.24 3.3 L 476.13 7.83 Z M 487 2.21 L 487 11.48 L 493.11 11.48 L 493.11 10.47 L 488.05 10.47 L 488.05 2.21 Z M 501.47 2.21 L 501.47 11.48 L 507.57 11.48 L 507.57 10.47 L 502.52 10.47 L 502.52 2.21 Z" stroke-linecap="round" />
</g>
</g>
</g>
</svg>